<svg width="25" height="25" viewBox="0 0 25 25" fill="none" xmlns="http://www.w3.org/2000/svg">
    <g clip-path="url(#clip0_2632_137)">
        <path d="M22.3828 3.13974C19.5606 0.766695 15.2002 1.12314 12.5 3.87216C9.79981 1.12314 5.43946 0.761812 2.61719 3.13974C-1.05468 6.23056 -0.517573 11.2696 2.09962 13.9405L10.6641 22.6661C11.1524 23.1642 11.8066 23.4425 12.5 23.4425C13.1983 23.4425 13.8477 23.169 14.3359 22.671L22.9004 13.9454C25.5127 11.2745 26.0596 6.23545 22.3828 3.13974ZM21.2305 12.295L12.666 21.0206C12.5488 21.1378 12.4512 21.1378 12.334 21.0206L3.76954 12.295C1.98731 10.4786 1.62598 7.04111 4.12598 4.93662C6.0254 3.33994 8.95509 3.57919 10.791 5.44931L12.5 7.19248L14.209 5.44931C16.0547 3.56943 18.9844 3.33994 20.874 4.93173C23.3692 7.03623 22.9981 10.4933 21.2305 12.295Z"
              fill="#C2C6D1"/>
    </g>
    <defs>
        <clipPath id="clip0_2632_137">
            <rect width="25" height="25" fill="white"/>
        </clipPath>
    </defs>
</svg>