<svg width="1044" height="1044" viewBox="0 0 1044 1044" fill="none" xmlns="http://www.w3.org/2000/svg">
<mask id="path-1-outside-1_1404_108" maskUnits="userSpaceOnUse" x="0" y="0" width="1044" height="1044" fill="black">
<rect fill="white" width="1044" height="1044"/>
<path d="M255.641 10C249.613 10 244.722 14.899 244.722 20.9402V135.496C244.722 141.537 249.611 146.436 255.641 146.436H325.128C320.897 204.712 329.404 264.398 349.915 319.932C338.25 324.707 328.769 333.919 323.573 345.685L161.085 392.501C159.302 393.068 157.651 394.002 156.321 395.339L31.2393 522.629C25.7605 527.889 27.8776 537.902 35.0128 540.484L120.316 574.189L35.6966 627.087C19.6058 637.143 10 654.494 10 673.497V963.442C10 993.604 34.4847 1018.14 64.5855 1018.14H281.957C310.796 1018.14 334.467 995.615 336.402 967.199L531.692 1033.43C533.9 1034.19 536.289 1034.17 538.526 1033.49L774.385 957.694C791.092 962.057 808.609 964.387 826.662 964.387C940.987 964.387 1034 871.253 1034 756.775C1034 689.609 1001.97 629.8 952.419 591.826C952.419 591.826 1006.81 572.808 1007.67 572.394C1013.1 569.784 1015.4 563.253 1012.79 557.805L936.705 398.697C935.292 395.881 932.761 393.759 929.744 392.873L710 332.659C705.064 327.125 698.941 322.753 692.051 319.932C712.558 264.431 721.069 204.734 716.838 146.436H786.325C792.353 146.436 797.244 141.537 797.244 135.496V20.9402C797.244 14.899 792.355 10 786.325 10H641.786C636.522 10 632.007 13.7674 631.051 18.953C620.045 78.6186 567.844 105.323 520.987 105.321C474.124 105.319 421.912 78.6121 410.915 18.953C409.958 13.7674 405.444 10 400.179 10H255.641ZM266.56 31.8804H391.393C406.878 93.1914 459.612 123.025 510.068 126.782V230.791C510.068 236.832 514.953 241.731 520.983 241.731C527.013 241.731 531.902 236.832 531.902 230.791V126.782C582.351 123.032 635.084 93.1958 650.573 31.8804H775.41V124.556H704.919C698.63 124.416 693.274 130.371 694.06 136.624C700.32 196.662 691.896 258.686 670.338 315.872C624.516 314.698 586.893 338.878 557.632 355.138H484.342C455.105 338.891 417.432 314.68 371.637 315.872C350.067 258.647 341.652 196.638 347.91 136.624C348.696 130.371 343.34 124.416 337.051 124.556H266.56V31.8804ZM520.983 278.253C518.836 278.243 516.709 278.655 514.722 279.467C512.736 280.278 510.931 281.473 509.409 282.981C507.888 284.49 506.68 286.283 505.856 288.257C505.033 290.232 504.609 292.349 504.609 294.488C504.609 296.626 505.033 298.744 505.856 300.718C506.68 302.693 507.888 304.486 509.409 305.995C510.931 307.503 512.736 308.697 514.722 309.509C516.709 310.32 518.836 310.733 520.983 310.723C523.13 310.733 525.257 310.32 527.243 309.509C529.23 308.697 531.035 307.503 532.557 305.995C534.078 304.486 535.285 302.693 536.109 300.718C536.933 298.744 537.357 296.626 537.357 294.488C537.357 292.349 536.933 290.232 536.109 288.257C535.285 286.283 534.078 284.49 532.557 282.981C531.035 281.473 529.23 280.278 527.243 279.467C525.257 278.655 523.13 278.243 520.983 278.253ZM375.611 337.714C411.71 337.598 446.341 358.871 470.645 372.535V448.894C454.425 458.248 437.636 468.612 415.534 477.018L338.47 450.796C333.532 420.944 334.892 384.643 342.128 358.437C345.054 347.842 353.784 340.003 364.372 338.467C368.128 337.965 371.877 337.726 375.611 337.714ZM666.141 337.714C669.869 337.717 673.617 337.948 677.367 338.437C688.146 339.874 697.004 348.017 699.838 358.437C708.323 389.168 708.621 433.592 700.632 464.638L644.56 482.659C615.301 475.428 591.492 460.493 571.32 448.894V372.535C595.575 358.901 630.101 337.689 666.141 337.714ZM722.44 358.749L888.517 404.257L724.62 456.928C730.142 425.985 729.4 388.335 722.44 358.749ZM317.222 370.283C313.382 392.907 312.718 419.153 315.38 442.941L200.603 403.881L317.222 370.283ZM492.483 377.018H549.487V444.364H492.483V377.018ZM167.073 415.582L517.415 534.8L417.564 668.113L305.893 623.989L202.162 559.147C196.581 555.657 190.479 553.29 184.188 552.018V483.3C184.188 477.259 179.299 472.36 173.269 472.36C167.241 472.36 162.35 477.259 162.35 483.3V552.018C155.683 553.349 149.194 555.987 143.363 559.779L58.3761 526.198L167.073 415.582ZM921.132 416.757L987.85 556.275L929.624 576.617C899.271 559.156 864.113 549.159 826.667 549.159C751.904 549.159 686.259 588.996 649.778 648.578L554.038 534.723L921.132 416.757ZM557.598 466.245C573.704 475.419 588.411 484.74 609.641 493.881L535.291 517.775L446.197 487.458C461.136 480.041 472.073 473.246 484.368 466.249L557.598 466.245ZM535.688 546.856L638.658 669.305C626.267 695.903 619.329 725.543 619.329 756.775C619.329 840.494 669.078 912.791 740.521 945.6L546.111 1008.07V684.57C546.111 678.529 541.223 673.63 535.192 673.63C529.162 673.63 524.273 678.529 524.273 684.57V1007.82L336.538 944.147V673.497C336.538 668.456 335.844 663.537 334.551 658.831L417.299 691.527C421.8 693.324 427.076 691.881 430.034 687.916L535.688 546.856ZM826.662 571.044C928.949 571.044 1012.17 654.364 1012.17 756.775C1012.17 859.186 928.949 942.506 826.662 942.506C724.376 942.506 641.162 859.189 641.162 756.775C641.162 654.362 724.376 571.044 826.662 571.044ZM162.355 574.634V640.766C137.962 645.834 119.573 667.526 119.573 693.446C119.573 723.111 143.661 747.245 173.269 747.245C202.878 747.245 226.97 723.111 226.97 693.446C226.97 667.529 208.58 645.834 184.188 640.766V574.634C186.411 575.415 188.568 576.435 190.607 577.711L299.291 645.651C308.944 651.686 314.709 662.095 314.709 673.497V963.442C314.709 981.54 300.017 996.263 281.957 996.263H64.5855C46.5254 996.263 31.8333 981.54 31.8333 963.442V673.497C31.8333 662.095 37.5985 651.686 47.2521 645.651L155.936 577.711C157.973 576.437 160.129 575.415 162.355 574.634ZM534.085 608.476C530.322 608.476 526.712 609.974 524.051 612.641C521.389 615.308 519.894 618.926 519.894 622.698C519.894 626.47 521.389 630.087 524.051 632.755C526.712 635.422 530.322 636.92 534.085 636.92C537.849 636.92 541.459 635.422 544.12 632.755C546.782 630.087 548.277 626.47 548.277 622.698C548.277 618.926 546.782 615.308 544.12 612.641C541.459 609.974 537.849 608.476 534.085 608.476ZM826.662 636.523C822.687 636.523 818.709 638.511 816.889 642.493L787.222 702.185L720.846 711.762C712.096 712.734 708.285 724.538 714.816 730.459L762.791 776.891L751.47 842.429C749.696 851.03 759.637 858.306 767.273 853.998L826.662 822.993L886.056 853.998C893.609 857.205 903.174 851.035 901.855 842.429L890.534 776.891L938.504 730.459C945.033 724.54 941.231 712.734 932.479 711.762L866.103 702.185L836.432 642.493C834.611 638.512 830.638 636.523 826.662 636.523ZM173.269 661.527C190.839 661.527 205.137 675.845 205.137 693.446C205.137 711.044 190.839 725.365 173.269 725.365C155.699 725.365 141.406 711.047 141.406 693.446C141.406 675.845 155.699 661.527 173.269 661.527ZM826.667 671.912L849.115 717.074C850.713 720.291 853.78 722.511 857.329 723.023L907.312 730.237L871.214 765.181C868.612 767.7 867.421 771.345 868.038 774.916L876.585 824.382L831.709 800.955C830.127 800.13 826.011 798.524 821.624 800.955L776.748 824.382L785.291 774.916C785.908 771.345 784.721 767.697 782.12 765.181L746.021 730.237L796.004 723.023C799.551 722.511 802.621 720.289 804.218 717.074L826.667 671.912Z"/>
</mask>
<path d="M255.641 10C249.613 10 244.722 14.899 244.722 20.9402V135.496C244.722 141.537 249.611 146.436 255.641 146.436H325.128C320.897 204.712 329.404 264.398 349.915 319.932C338.25 324.707 328.769 333.919 323.573 345.685L161.085 392.501C159.302 393.068 157.651 394.002 156.321 395.339L31.2393 522.629C25.7605 527.889 27.8776 537.902 35.0128 540.484L120.316 574.189L35.6966 627.087C19.6058 637.143 10 654.494 10 673.497V963.442C10 993.604 34.4847 1018.14 64.5855 1018.14H281.957C310.796 1018.14 334.467 995.615 336.402 967.199L531.692 1033.43C533.9 1034.19 536.289 1034.17 538.526 1033.49L774.385 957.694C791.092 962.057 808.609 964.387 826.662 964.387C940.987 964.387 1034 871.253 1034 756.775C1034 689.609 1001.97 629.8 952.419 591.826C952.419 591.826 1006.81 572.808 1007.67 572.394C1013.1 569.784 1015.4 563.253 1012.79 557.805L936.705 398.697C935.292 395.881 932.761 393.759 929.744 392.873L710 332.659C705.064 327.125 698.941 322.753 692.051 319.932C712.558 264.431 721.069 204.734 716.838 146.436H786.325C792.353 146.436 797.244 141.537 797.244 135.496V20.9402C797.244 14.899 792.355 10 786.325 10H641.786C636.522 10 632.007 13.7674 631.051 18.953C620.045 78.6186 567.844 105.323 520.987 105.321C474.124 105.319 421.912 78.6121 410.915 18.953C409.958 13.7674 405.444 10 400.179 10H255.641ZM266.56 31.8804H391.393C406.878 93.1914 459.612 123.025 510.068 126.782V230.791C510.068 236.832 514.953 241.731 520.983 241.731C527.013 241.731 531.902 236.832 531.902 230.791V126.782C582.351 123.032 635.084 93.1958 650.573 31.8804H775.41V124.556H704.919C698.63 124.416 693.274 130.371 694.06 136.624C700.32 196.662 691.896 258.686 670.338 315.872C624.516 314.698 586.893 338.878 557.632 355.138H484.342C455.105 338.891 417.432 314.68 371.637 315.872C350.067 258.647 341.652 196.638 347.91 136.624C348.696 130.371 343.34 124.416 337.051 124.556H266.56V31.8804ZM520.983 278.253C518.836 278.243 516.709 278.655 514.722 279.467C512.736 280.278 510.931 281.473 509.409 282.981C507.888 284.49 506.68 286.283 505.856 288.257C505.033 290.232 504.609 292.349 504.609 294.488C504.609 296.626 505.033 298.744 505.856 300.718C506.68 302.693 507.888 304.486 509.409 305.995C510.931 307.503 512.736 308.697 514.722 309.509C516.709 310.32 518.836 310.733 520.983 310.723C523.13 310.733 525.257 310.32 527.243 309.509C529.23 308.697 531.035 307.503 532.557 305.995C534.078 304.486 535.285 302.693 536.109 300.718C536.933 298.744 537.357 296.626 537.357 294.488C537.357 292.349 536.933 290.232 536.109 288.257C535.285 286.283 534.078 284.49 532.557 282.981C531.035 281.473 529.23 280.278 527.243 279.467C525.257 278.655 523.13 278.243 520.983 278.253ZM375.611 337.714C411.71 337.598 446.341 358.871 470.645 372.535V448.894C454.425 458.248 437.636 468.612 415.534 477.018L338.47 450.796C333.532 420.944 334.892 384.643 342.128 358.437C345.054 347.842 353.784 340.003 364.372 338.467C368.128 337.965 371.877 337.726 375.611 337.714ZM666.141 337.714C669.869 337.717 673.617 337.948 677.367 338.437C688.146 339.874 697.004 348.017 699.838 358.437C708.323 389.168 708.621 433.592 700.632 464.638L644.56 482.659C615.301 475.428 591.492 460.493 571.32 448.894V372.535C595.575 358.901 630.101 337.689 666.141 337.714ZM722.44 358.749L888.517 404.257L724.62 456.928C730.142 425.985 729.4 388.335 722.44 358.749ZM317.222 370.283C313.382 392.907 312.718 419.153 315.38 442.941L200.603 403.881L317.222 370.283ZM492.483 377.018H549.487V444.364H492.483V377.018ZM167.073 415.582L517.415 534.8L417.564 668.113L305.893 623.989L202.162 559.147C196.581 555.657 190.479 553.29 184.188 552.018V483.3C184.188 477.259 179.299 472.36 173.269 472.36C167.241 472.36 162.35 477.259 162.35 483.3V552.018C155.683 553.349 149.194 555.987 143.363 559.779L58.3761 526.198L167.073 415.582ZM921.132 416.757L987.85 556.275L929.624 576.617C899.271 559.156 864.113 549.159 826.667 549.159C751.904 549.159 686.259 588.996 649.778 648.578L554.038 534.723L921.132 416.757ZM557.598 466.245C573.704 475.419 588.411 484.74 609.641 493.881L535.291 517.775L446.197 487.458C461.136 480.041 472.073 473.246 484.368 466.249L557.598 466.245ZM535.688 546.856L638.658 669.305C626.267 695.903 619.329 725.543 619.329 756.775C619.329 840.494 669.078 912.791 740.521 945.6L546.111 1008.07V684.57C546.111 678.529 541.223 673.63 535.192 673.63C529.162 673.63 524.273 678.529 524.273 684.57V1007.82L336.538 944.147V673.497C336.538 668.456 335.844 663.537 334.551 658.831L417.299 691.527C421.8 693.324 427.076 691.881 430.034 687.916L535.688 546.856ZM826.662 571.044C928.949 571.044 1012.17 654.364 1012.17 756.775C1012.17 859.186 928.949 942.506 826.662 942.506C724.376 942.506 641.162 859.189 641.162 756.775C641.162 654.362 724.376 571.044 826.662 571.044ZM162.355 574.634V640.766C137.962 645.834 119.573 667.526 119.573 693.446C119.573 723.111 143.661 747.245 173.269 747.245C202.878 747.245 226.97 723.111 226.97 693.446C226.97 667.529 208.58 645.834 184.188 640.766V574.634C186.411 575.415 188.568 576.435 190.607 577.711L299.291 645.651C308.944 651.686 314.709 662.095 314.709 673.497V963.442C314.709 981.54 300.017 996.263 281.957 996.263H64.5855C46.5254 996.263 31.8333 981.54 31.8333 963.442V673.497C31.8333 662.095 37.5985 651.686 47.2521 645.651L155.936 577.711C157.973 576.437 160.129 575.415 162.355 574.634ZM534.085 608.476C530.322 608.476 526.712 609.974 524.051 612.641C521.389 615.308 519.894 618.926 519.894 622.698C519.894 626.47 521.389 630.087 524.051 632.755C526.712 635.422 530.322 636.92 534.085 636.92C537.849 636.92 541.459 635.422 544.12 632.755C546.782 630.087 548.277 626.47 548.277 622.698C548.277 618.926 546.782 615.308 544.12 612.641C541.459 609.974 537.849 608.476 534.085 608.476ZM826.662 636.523C822.687 636.523 818.709 638.511 816.889 642.493L787.222 702.185L720.846 711.762C712.096 712.734 708.285 724.538 714.816 730.459L762.791 776.891L751.47 842.429C749.696 851.03 759.637 858.306 767.273 853.998L826.662 822.993L886.056 853.998C893.609 857.205 903.174 851.035 901.855 842.429L890.534 776.891L938.504 730.459C945.033 724.54 941.231 712.734 932.479 711.762L866.103 702.185L836.432 642.493C834.611 638.512 830.638 636.523 826.662 636.523ZM173.269 661.527C190.839 661.527 205.137 675.845 205.137 693.446C205.137 711.044 190.839 725.365 173.269 725.365C155.699 725.365 141.406 711.047 141.406 693.446C141.406 675.845 155.699 661.527 173.269 661.527ZM826.667 671.912L849.115 717.074C850.713 720.291 853.78 722.511 857.329 723.023L907.312 730.237L871.214 765.181C868.612 767.7 867.421 771.345 868.038 774.916L876.585 824.382L831.709 800.955C830.127 800.13 826.011 798.524 821.624 800.955L776.748 824.382L785.291 774.916C785.908 771.345 784.721 767.697 782.12 765.181L746.021 730.237L796.004 723.023C799.551 722.511 802.621 720.289 804.218 717.074L826.667 671.912Z" fill="black"/>
<path d="M255.641 10C249.613 10 244.722 14.899 244.722 20.9402V135.496C244.722 141.537 249.611 146.436 255.641 146.436H325.128C320.897 204.712 329.404 264.398 349.915 319.932C338.25 324.707 328.769 333.919 323.573 345.685L161.085 392.501C159.302 393.068 157.651 394.002 156.321 395.339L31.2393 522.629C25.7605 527.889 27.8776 537.902 35.0128 540.484L120.316 574.189L35.6966 627.087C19.6058 637.143 10 654.494 10 673.497V963.442C10 993.604 34.4847 1018.14 64.5855 1018.14H281.957C310.796 1018.14 334.467 995.615 336.402 967.199L531.692 1033.43C533.9 1034.19 536.289 1034.17 538.526 1033.49L774.385 957.694C791.092 962.057 808.609 964.387 826.662 964.387C940.987 964.387 1034 871.253 1034 756.775C1034 689.609 1001.97 629.8 952.419 591.826C952.419 591.826 1006.81 572.808 1007.67 572.394C1013.1 569.784 1015.4 563.253 1012.79 557.805L936.705 398.697C935.292 395.881 932.761 393.759 929.744 392.873L710 332.659C705.064 327.125 698.941 322.753 692.051 319.932C712.558 264.431 721.069 204.734 716.838 146.436H786.325C792.353 146.436 797.244 141.537 797.244 135.496V20.9402C797.244 14.899 792.355 10 786.325 10H641.786C636.522 10 632.007 13.7674 631.051 18.953C620.045 78.6186 567.844 105.323 520.987 105.321C474.124 105.319 421.912 78.6121 410.915 18.953C409.958 13.7674 405.444 10 400.179 10H255.641ZM266.56 31.8804H391.393C406.878 93.1914 459.612 123.025 510.068 126.782V230.791C510.068 236.832 514.953 241.731 520.983 241.731C527.013 241.731 531.902 236.832 531.902 230.791V126.782C582.351 123.032 635.084 93.1958 650.573 31.8804H775.41V124.556H704.919C698.63 124.416 693.274 130.371 694.06 136.624C700.32 196.662 691.896 258.686 670.338 315.872C624.516 314.698 586.893 338.878 557.632 355.138H484.342C455.105 338.891 417.432 314.68 371.637 315.872C350.067 258.647 341.652 196.638 347.91 136.624C348.696 130.371 343.34 124.416 337.051 124.556H266.56V31.8804ZM520.983 278.253C518.836 278.243 516.709 278.655 514.722 279.467C512.736 280.278 510.931 281.473 509.409 282.981C507.888 284.49 506.68 286.283 505.856 288.257C505.033 290.232 504.609 292.349 504.609 294.488C504.609 296.626 505.033 298.744 505.856 300.718C506.68 302.693 507.888 304.486 509.409 305.995C510.931 307.503 512.736 308.697 514.722 309.509C516.709 310.32 518.836 310.733 520.983 310.723C523.13 310.733 525.257 310.32 527.243 309.509C529.23 308.697 531.035 307.503 532.557 305.995C534.078 304.486 535.285 302.693 536.109 300.718C536.933 298.744 537.357 296.626 537.357 294.488C537.357 292.349 536.933 290.232 536.109 288.257C535.285 286.283 534.078 284.49 532.557 282.981C531.035 281.473 529.23 280.278 527.243 279.467C525.257 278.655 523.13 278.243 520.983 278.253ZM375.611 337.714C411.71 337.598 446.341 358.871 470.645 372.535V448.894C454.425 458.248 437.636 468.612 415.534 477.018L338.47 450.796C333.532 420.944 334.892 384.643 342.128 358.437C345.054 347.842 353.784 340.003 364.372 338.467C368.128 337.965 371.877 337.726 375.611 337.714ZM666.141 337.714C669.869 337.717 673.617 337.948 677.367 338.437C688.146 339.874 697.004 348.017 699.838 358.437C708.323 389.168 708.621 433.592 700.632 464.638L644.56 482.659C615.301 475.428 591.492 460.493 571.32 448.894V372.535C595.575 358.901 630.101 337.689 666.141 337.714ZM722.44 358.749L888.517 404.257L724.62 456.928C730.142 425.985 729.4 388.335 722.44 358.749ZM317.222 370.283C313.382 392.907 312.718 419.153 315.38 442.941L200.603 403.881L317.222 370.283ZM492.483 377.018H549.487V444.364H492.483V377.018ZM167.073 415.582L517.415 534.8L417.564 668.113L305.893 623.989L202.162 559.147C196.581 555.657 190.479 553.29 184.188 552.018V483.3C184.188 477.259 179.299 472.36 173.269 472.36C167.241 472.36 162.35 477.259 162.35 483.3V552.018C155.683 553.349 149.194 555.987 143.363 559.779L58.3761 526.198L167.073 415.582ZM921.132 416.757L987.85 556.275L929.624 576.617C899.271 559.156 864.113 549.159 826.667 549.159C751.904 549.159 686.259 588.996 649.778 648.578L554.038 534.723L921.132 416.757ZM557.598 466.245C573.704 475.419 588.411 484.74 609.641 493.881L535.291 517.775L446.197 487.458C461.136 480.041 472.073 473.246 484.368 466.249L557.598 466.245ZM535.688 546.856L638.658 669.305C626.267 695.903 619.329 725.543 619.329 756.775C619.329 840.494 669.078 912.791 740.521 945.6L546.111 1008.07V684.57C546.111 678.529 541.223 673.63 535.192 673.63C529.162 673.63 524.273 678.529 524.273 684.57V1007.82L336.538 944.147V673.497C336.538 668.456 335.844 663.537 334.551 658.831L417.299 691.527C421.8 693.324 427.076 691.881 430.034 687.916L535.688 546.856ZM826.662 571.044C928.949 571.044 1012.17 654.364 1012.17 756.775C1012.17 859.186 928.949 942.506 826.662 942.506C724.376 942.506 641.162 859.189 641.162 756.775C641.162 654.362 724.376 571.044 826.662 571.044ZM162.355 574.634V640.766C137.962 645.834 119.573 667.526 119.573 693.446C119.573 723.111 143.661 747.245 173.269 747.245C202.878 747.245 226.97 723.111 226.97 693.446C226.97 667.529 208.58 645.834 184.188 640.766V574.634C186.411 575.415 188.568 576.435 190.607 577.711L299.291 645.651C308.944 651.686 314.709 662.095 314.709 673.497V963.442C314.709 981.54 300.017 996.263 281.957 996.263H64.5855C46.5254 996.263 31.8333 981.54 31.8333 963.442V673.497C31.8333 662.095 37.5985 651.686 47.2521 645.651L155.936 577.711C157.973 576.437 160.129 575.415 162.355 574.634ZM534.085 608.476C530.322 608.476 526.712 609.974 524.051 612.641C521.389 615.308 519.894 618.926 519.894 622.698C519.894 626.47 521.389 630.087 524.051 632.755C526.712 635.422 530.322 636.92 534.085 636.92C537.849 636.92 541.459 635.422 544.12 632.755C546.782 630.087 548.277 626.47 548.277 622.698C548.277 618.926 546.782 615.308 544.12 612.641C541.459 609.974 537.849 608.476 534.085 608.476ZM826.662 636.523C822.687 636.523 818.709 638.511 816.889 642.493L787.222 702.185L720.846 711.762C712.096 712.734 708.285 724.538 714.816 730.459L762.791 776.891L751.47 842.429C749.696 851.03 759.637 858.306 767.273 853.998L826.662 822.993L886.056 853.998C893.609 857.205 903.174 851.035 901.855 842.429L890.534 776.891L938.504 730.459C945.033 724.54 941.231 712.734 932.479 711.762L866.103 702.185L836.432 642.493C834.611 638.512 830.638 636.523 826.662 636.523ZM173.269 661.527C190.839 661.527 205.137 675.845 205.137 693.446C205.137 711.044 190.839 725.365 173.269 725.365C155.699 725.365 141.406 711.047 141.406 693.446C141.406 675.845 155.699 661.527 173.269 661.527ZM826.667 671.912L849.115 717.074C850.713 720.291 853.78 722.511 857.329 723.023L907.312 730.237L871.214 765.181C868.612 767.7 867.421 771.345 868.038 774.916L876.585 824.382L831.709 800.955C830.127 800.13 826.011 798.524 821.624 800.955L776.748 824.382L785.291 774.916C785.908 771.345 784.721 767.697 782.12 765.181L746.021 730.237L796.004 723.023C799.551 722.511 802.621 720.289 804.218 717.074L826.667 671.912Z" stroke="black" stroke-width="20" mask="url(#path-1-outside-1_1404_108)"/>
</svg>
