<svg width="21" height="20" viewBox="0 0 21 20" fill="none" xmlns="http://www.w3.org/2000/svg">
<path d="M20.832 18.1233L13.1449 1.04102L11.3242 5.20742L17.5953 19.7898L20.832 18.1233Z" fill="#008DFF"/>
<path d="M8.49431 0H12.1356C10.5847 3.472 7.24009 10.9576 6.26909 13.1242C4.16524 13.4575 2.1558 14.7907 1.41406 15.4157L8.49431 0Z" fill="#008DFF"/>
<path d="M11.8772 12.5518H9.47099C8.82913 12.5518 8.40443 11.8852 8.67559 11.3035L9.78617 8.92082C10.0905 8.26792 11.0084 8.23951 11.3525 8.87233L12.6482 11.255C12.9662 11.8397 12.5429 12.5518 11.8772 12.5518Z" fill="#008DFF"/>
<path d="M13.5536 14.1667L15.5765 18.7498C10.3978 15.5832 5.19218 18.2637 3.23668 19.9998L0 18.3331C4.36952 13.3334 10.8564 13.4723 13.5536 14.1667Z" fill="#008DFF"/>
</svg>
