<svg width="30" height="28" viewBox="0 0 30 28" fill="none" xmlns="http://www.w3.org/2000/svg">
    <path d="M29.965 25.3749L18.911 1.45898L16.293 7.29212L25.3107 27.7081L29.965 25.3749Z" fill="white"/>
    <path d="M12.2165 0H17.4526C15.2224 4.86095 10.4129 15.3412 9.01663 18.3744C5.99133 18.841 3.10177 20.7076 2.03516 21.5826L12.2165 0Z"
          fill="white"/>
    <path d="M17.7086 17.5727H13.0337C12.3879 17.5727 11.9633 16.8987 12.2422 16.3162L14.3998 11.8093C14.7071 11.1674 15.6105 11.139 15.9575 11.7603L18.4747 16.2672C18.8015 16.8521 18.3786 17.5727 17.7086 17.5727Z"
          fill="white"/>
    <path d="M19.49 19.833L22.3989 26.2495C14.952 21.8162 7.4663 25.569 4.65432 27.9995L0 25.6662C6.28333 18.6664 15.6114 18.8608 19.49 19.833Z"
          fill="white"/>
</svg>
